<svg width="24" height="25" viewBox="0 0 24 25" fill="none" xmlns="http://www.w3.org/2000/svg">
<path d="M8 6.503V9.498C8 9.76322 8.10536 10.0176 8.2929 10.2051C8.48043 10.3926 8.73479 10.498 9 10.498C9.26522 10.498 9.51958 10.3926 9.70711 10.2051C9.89465 10.0176 10 9.76322 10 9.498V5.602C10 4.994 9.507 4.5 8.9 4.5H5C4.73439 4.5 4.47965 4.60551 4.29184 4.79333C4.10402 4.98115 3.9985 5.23589 3.9985 5.5015C3.9985 5.76711 4.10402 6.02185 4.29184 6.20967C4.47965 6.39748 4.73439 6.503 5 6.503H8Z" fill="#626F86"/>
<path d="M9.42801 18.518C7.35101 17.489 6 15.307 6 12.87C6 10.604 7.16701 8.551 9.02001 7.445C9.50001 7.159 9.666 6.523 9.391 6.024C9.32916 5.90677 9.24415 5.80331 9.14113 5.71991C9.03811 5.63651 8.91923 5.5749 8.79169 5.5388C8.66416 5.50271 8.53062 5.49289 8.39917 5.50994C8.26773 5.527 8.14111 5.57056 8.02701 5.638C5.55701 7.111 4 9.85 4 12.87C4 16.118 5.802 19.028 8.57 20.399C9.068 20.646 9.66501 20.425 9.90201 19.906C10.139 19.386 9.92701 18.765 9.42801 18.518Z" fill="#626F86"/>
<path fill-rule="evenodd" clip-rule="evenodd" d="M14 15.502V19.398C14 20.006 14.493 20.5 15.1 20.5H19C19.2656 20.5 19.5204 20.3945 19.7082 20.2067C19.896 20.0188 20.0015 19.7641 20.0015 19.4985C20.0015 19.2329 19.896 18.9782 19.7082 18.7903C19.5204 18.6025 19.2656 18.497 19 18.497H16V15.502C16 15.2368 15.8946 14.9824 15.7071 14.7949C15.5196 14.6074 15.2652 14.502 15 14.502C14.7348 14.502 14.4804 14.6074 14.2929 14.7949C14.1054 14.9824 14 15.2368 14 15.502Z" fill="#626F86"/>
<path fill-rule="evenodd" clip-rule="evenodd" d="M14.097 5.096C13.86 5.616 14.072 6.236 14.571 6.483C16.648 7.512 17.999 9.693 17.999 12.13C17.999 14.396 16.832 16.45 14.978 17.555C14.7456 17.6988 14.5776 17.9265 14.5087 18.1909C14.4398 18.4553 14.4754 18.7361 14.608 18.975C14.882 19.475 15.493 19.648 15.972 19.362C18.442 17.889 19.999 15.15 19.999 12.13C19.999 8.882 18.197 5.972 15.429 4.602C15.2965 4.53537 15.1503 4.50045 15.002 4.5C14.8098 4.50188 14.6223 4.55909 14.4618 4.66479C14.3013 4.77049 14.1746 4.9202 14.097 5.096Z" fill="#626F86"/>
</svg>
