<svg width="16" height="16" viewBox="0 0 16 16" fill="none" xmlns="http://www.w3.org/2000/svg">
<path d="M9.99992 4.00004H5.99992C5.63173 4.00004 5.33325 4.29852 5.33325 4.66671C5.33325 5.0349 5.63173 5.33337 5.99992 5.33337H9.99992C10.3681 5.33337 10.6666 5.0349 10.6666 4.66671C10.6666 4.29852 10.3681 4.00004 9.99992 4.00004Z" fill="white"/>
<path d="M9.99992 6.00004H5.99992C5.63173 6.00004 5.33325 6.29852 5.33325 6.66671C5.33325 7.0349 5.63173 7.33337 5.99992 7.33337H9.99992C10.3681 7.33337 10.6666 7.0349 10.6666 6.66671C10.6666 6.29852 10.3681 6.00004 9.99992 6.00004Z" fill="white"/>
<path d="M7.33325 8.00004H5.99992C5.63173 8.00004 5.33325 8.29852 5.33325 8.66671C5.33325 9.0349 5.63173 9.33337 5.99992 9.33337H7.33325C7.70144 9.33337 7.99992 9.0349 7.99992 8.66671C7.99992 8.29852 7.70144 8.00004 7.33325 8.00004Z" fill="white"/>
<path d="M4.66659 2.66671V13.3334H11.3333V2.66671H4.66659ZM3.33325 2.66004C3.33325 1.92804 3.93125 1.33337 4.67059 1.33337H11.3293C12.0679 1.33337 12.6666 1.93204 12.6666 2.66004V13.34C12.6666 14.0727 12.0686 14.6667 11.3293 14.6667H4.67059C4.31758 14.6672 3.97873 14.528 3.72812 14.2794C3.47751 14.0308 3.33554 13.693 3.33325 13.34V2.66004Z" fill="white"/>
</svg>
