<svg width="16" height="16" viewBox="0 0 16 16" fill="none" xmlns="http://www.w3.org/2000/svg">
<path fill-rule="evenodd" clip-rule="evenodd" d="M7.38937 2.16268C7.736 2.05144 8.10642 2.03692 8.4607 2.12068L8.6107 2.16268L12.9667 3.56001C13.0934 3.60201 13.2074 3.68068 13.2907 3.79068L13.3374 3.86068L15.1707 7.02535C15.2171 7.10528 15.2463 7.19399 15.2566 7.28584C15.2669 7.37768 15.2579 7.47065 15.2303 7.55886C15.2027 7.64706 15.1571 7.72857 15.0964 7.7982C15.0356 7.86783 14.961 7.92407 14.8774 7.96335L14.7974 7.99468L13.43 8.43335V11.32C13.4299 11.5839 13.3515 11.8419 13.2047 12.0612C13.0579 12.2805 12.8493 12.4513 12.6054 12.552L12.504 12.5893L8.6107 13.8373C8.26407 13.9486 7.89364 13.9631 7.53937 13.8793L7.38937 13.838L3.49603 12.5893C3.24468 12.5086 3.02294 12.3551 2.85892 12.1482C2.6949 11.9414 2.59598 11.6905 2.5747 11.4273L2.57003 11.3193V8.43335L1.2027 7.99468C1.11477 7.96646 1.03365 7.92028 0.964508 7.85906C0.895361 7.79785 0.839686 7.72293 0.801014 7.63907C0.762341 7.55521 0.741515 7.46422 0.739854 7.37189C0.738193 7.27955 0.755735 7.18788 0.791366 7.10268L0.829366 7.02535L2.6627 3.86068C2.73142 3.74211 2.83501 3.6476 2.95937 3.59001L3.0327 3.56001L7.38937 2.16268ZM8.6667 8.20335V12.4193L12.0967 11.3193V8.86135L10.0367 9.52201C9.90459 9.56439 9.76255 9.56449 9.63039 9.5223C9.49822 9.48012 9.3825 9.39775 9.29937 9.28668L9.2567 9.22135L8.6667 8.20335ZM7.33337 8.20335L6.74337 9.22135C6.66713 9.3529 6.54821 9.45443 6.40635 9.50912C6.26448 9.56381 6.10818 9.56836 5.96337 9.52201L3.90337 8.86135V11.3193L7.33337 12.42V8.20335ZM3.5467 4.99335L2.39803 6.97801L5.8587 8.08868L7.0087 6.10401L3.5467 4.99335ZM12.4534 4.99335L8.99137 6.10401L10.1407 8.08868L13.602 6.97801L12.4534 4.99335ZM8.20337 3.43201C8.09783 3.39831 7.98556 3.39143 7.8767 3.41201L7.7967 3.43201L5.42003 4.19468L8.00003 5.02201L10.58 4.19468L8.20337 3.43201Z" fill="white"/>
</svg>
