<svg width="148" height="31" viewBox="0 0 148 31" fill="none" xmlns="http://www.w3.org/2000/svg">
<path d="M0.375 7.5625L15.5 0L30.625 7.5625L15.5 15.125L0.375 7.5625Z" fill="#3354CC"/>
<path d="M29.5068 7.5625L15.5 14.5654L1.49316 7.5625L15.5 0.558594L29.5068 7.5625Z" stroke="black" stroke-opacity="0.1"/>
<path d="M0.375 7.5625L15.5 15.125V30.25L0.375 22.6875V7.5625Z" fill="#A3F94E"/>
<path d="M15 15.4336V29.4404L0.875 22.3779V8.37109L15 15.4336Z" stroke="black" stroke-opacity="0.1"/>
<path d="M15.5 15.125L30.625 7.5625V22.6875L15.5 30.25V15.125Z" fill="#4260D0"/>
<path d="M30.125 22.3779L16 29.4404V15.4336L30.125 8.37109V22.3779Z" stroke="black" stroke-opacity="0.1"/>
<path d="M42.777 22.125V10.205H47.209C48.0197 10.205 48.7343 10.3543 49.353 10.653C49.9823 10.941 50.473 11.3677 50.825 11.933C51.177 12.4877 51.353 13.165 51.353 13.965C51.353 14.7863 51.1557 15.485 50.761 16.061C50.377 16.637 49.8543 17.0637 49.193 17.341L51.929 22.125H49.465L46.537 16.893L47.945 17.725H44.953V22.125H42.777ZM44.953 15.805H47.241C47.6357 15.805 47.977 15.7303 48.265 15.581C48.553 15.421 48.777 15.2023 48.937 14.925C49.097 14.6477 49.177 14.3277 49.177 13.965C49.177 13.5917 49.097 13.2717 48.937 13.005C48.777 12.7277 48.553 12.5143 48.265 12.365C47.977 12.205 47.6357 12.125 47.241 12.125H44.953V15.805ZM56.8228 22.317C55.9268 22.317 55.1428 22.1143 54.4708 21.709C53.7988 21.3037 53.2761 20.7543 52.9028 20.061C52.5294 19.3677 52.3428 18.5997 52.3428 17.757C52.3428 16.8823 52.5294 16.109 52.9028 15.437C53.2868 14.7543 53.8041 14.2157 54.4548 13.821C55.1161 13.4263 55.8521 13.229 56.6628 13.229C57.3454 13.229 57.9428 13.341 58.4548 13.565C58.9774 13.789 59.4201 14.0983 59.7828 14.493C60.1454 14.8877 60.4228 15.341 60.6148 15.853C60.8068 16.3543 60.9028 16.8983 60.9028 17.485C60.9028 17.6343 60.8921 17.789 60.8708 17.949C60.8601 18.109 60.8334 18.2477 60.7908 18.365H54.0707V16.765H59.6068L58.6148 17.517C58.7108 17.0263 58.6841 16.589 58.5348 16.205C58.3961 15.821 58.1614 15.517 57.8308 15.293C57.5108 15.069 57.1214 14.957 56.6628 14.957C56.2254 14.957 55.8361 15.069 55.4948 15.293C55.1534 15.5063 54.8921 15.8263 54.7108 16.253C54.5401 16.669 54.4761 17.1757 54.5188 17.773C54.4761 18.3063 54.5454 18.781 54.7268 19.197C54.9188 19.6023 55.1961 19.917 55.5588 20.141C55.9321 20.365 56.3588 20.477 56.8388 20.477C57.3188 20.477 57.7241 20.3757 58.0548 20.173C58.3961 19.9703 58.6628 19.6983 58.8548 19.357L60.5508 20.189C60.3801 20.605 60.1134 20.973 59.7508 21.293C59.3881 21.613 58.9561 21.8637 58.4548 22.045C57.9641 22.2263 57.4201 22.317 56.8228 22.317ZM62.4916 22.125V13.421H64.4596V15.437L64.2356 15.101C64.3956 14.4717 64.7156 14.0023 65.1956 13.693C65.6756 13.3837 66.241 13.229 66.8916 13.229C67.6063 13.229 68.2356 13.4157 68.7796 13.789C69.3236 14.1623 69.6756 14.653 69.8356 15.261L69.2436 15.309C69.5103 14.6157 69.9103 14.0983 70.4436 13.757C70.977 13.405 71.5903 13.229 72.2836 13.229C72.9023 13.229 73.4516 13.3677 73.9316 13.645C74.4223 13.9223 74.8063 14.3117 75.0836 14.813C75.361 15.3037 75.4996 15.8743 75.4996 16.525V22.125H73.4036V17.021C73.4036 16.637 73.3343 16.3063 73.1956 16.029C73.057 15.7517 72.865 15.5383 72.6196 15.389C72.3743 15.229 72.0756 15.149 71.7236 15.149C71.393 15.149 71.0996 15.229 70.8436 15.389C70.5876 15.5383 70.3903 15.7517 70.2516 16.029C70.113 16.3063 70.0436 16.637 70.0436 17.021V22.125H67.9476V17.021C67.9476 16.637 67.8783 16.3063 67.7396 16.029C67.601 15.7517 67.4036 15.5383 67.1476 15.389C66.9023 15.229 66.609 15.149 66.2676 15.149C65.937 15.149 65.6436 15.229 65.3876 15.389C65.1316 15.5383 64.9343 15.7517 64.7956 16.029C64.657 16.3063 64.5876 16.637 64.5876 17.021V22.125H62.4916ZM81.4009 22.317C80.5049 22.317 79.7209 22.1143 79.0489 21.709C78.3769 21.3037 77.8542 20.7543 77.4809 20.061C77.1075 19.3677 76.9209 18.5997 76.9209 17.757C76.9209 16.8823 77.1075 16.109 77.4809 15.437C77.8649 14.7543 78.3822 14.2157 79.0329 13.821C79.6942 13.4263 80.4302 13.229 81.2409 13.229C81.9235 13.229 82.5209 13.341 83.0329 13.565C83.5555 13.789 83.9982 14.0983 84.3609 14.493C84.7235 14.8877 85.0009 15.341 85.1929 15.853C85.3849 16.3543 85.4809 16.8983 85.4809 17.485C85.4809 17.6343 85.4702 17.789 85.4489 17.949C85.4382 18.109 85.4115 18.2477 85.3689 18.365H78.6489V16.765H84.1849L83.1929 17.517C83.2889 17.0263 83.2622 16.589 83.1129 16.205C82.9742 15.821 82.7395 15.517 82.4089 15.293C82.0889 15.069 81.6995 14.957 81.2409 14.957C80.8035 14.957 80.4142 15.069 80.0729 15.293C79.7315 15.5063 79.4702 15.8263 79.2889 16.253C79.1182 16.669 79.0542 17.1757 79.0969 17.773C79.0542 18.3063 79.1235 18.781 79.3049 19.197C79.4969 19.6023 79.7742 19.917 80.1369 20.141C80.5102 20.365 80.9369 20.477 81.4169 20.477C81.8969 20.477 82.3022 20.3757 82.6329 20.173C82.9742 19.9703 83.2409 19.6983 83.4329 19.357L85.1289 20.189C84.9582 20.605 84.6915 20.973 84.3289 21.293C83.9662 21.613 83.5342 21.8637 83.0329 22.045C82.5422 22.2263 81.9982 22.317 81.4009 22.317ZM91.1178 22.317C90.2751 22.317 89.5231 22.1197 88.8618 21.725C88.2004 21.3197 87.6778 20.7703 87.2938 20.077C86.9098 19.3837 86.7178 18.6157 86.7178 17.773C86.7178 16.9197 86.9098 16.1517 87.2938 15.469C87.6778 14.7863 88.2004 14.2423 88.8618 13.837C89.5338 13.4317 90.2804 13.229 91.1018 13.229C91.7631 13.229 92.3498 13.3623 92.8618 13.629C93.3844 13.885 93.7951 14.2477 94.0938 14.717L93.7738 15.149V10.013H95.8698V22.125H93.8858V20.445L94.1098 20.861C93.8111 21.3303 93.3951 21.693 92.8618 21.949C92.3284 22.1943 91.7471 22.317 91.1178 22.317ZM91.3418 20.397C91.8218 20.397 92.2431 20.285 92.6058 20.061C92.9684 19.837 93.2511 19.5277 93.4538 19.133C93.6671 18.7383 93.7738 18.285 93.7738 17.773C93.7738 17.2717 93.6671 16.8237 93.4538 16.429C93.2511 16.0237 92.9684 15.709 92.6058 15.485C92.2431 15.261 91.8218 15.149 91.3418 15.149C90.8724 15.149 90.4511 15.2663 90.0778 15.501C89.7044 15.725 89.4111 16.0343 89.1978 16.429C88.9951 16.813 88.8938 17.261 88.8938 17.773C88.8938 18.285 88.9951 18.7383 89.1978 19.133C89.4111 19.5277 89.7044 19.837 90.0778 20.061C90.4511 20.285 90.8724 20.397 91.3418 20.397ZM97.8198 22.125V13.421H99.9158V22.125H97.8198ZM97.8198 12.445V10.205H99.9158V12.445H97.8198ZM104.491 22.317C103.883 22.317 103.355 22.2157 102.907 22.013C102.459 21.8103 102.112 21.5223 101.867 21.149C101.622 20.765 101.499 20.3223 101.499 19.821C101.499 19.341 101.606 18.9143 101.819 18.541C102.032 18.157 102.363 17.837 102.811 17.581C103.259 17.325 103.824 17.1437 104.507 17.037L107.355 16.573V18.173L104.907 18.589C104.491 18.6637 104.182 18.797 103.979 18.989C103.776 19.181 103.675 19.4317 103.675 19.741C103.675 20.0397 103.787 20.2797 104.011 20.461C104.246 20.6317 104.534 20.717 104.875 20.717C105.312 20.717 105.696 20.6263 106.027 20.445C106.368 20.253 106.63 19.9917 106.811 19.661C107.003 19.3303 107.099 18.9677 107.099 18.573V16.333C107.099 15.9597 106.95 15.6503 106.651 15.405C106.363 15.149 105.979 15.021 105.499 15.021C105.051 15.021 104.651 15.1437 104.299 15.389C103.958 15.6237 103.707 15.9383 103.547 16.333L101.835 15.501C102.006 15.0423 102.272 14.6477 102.635 14.317C103.008 13.9757 103.446 13.709 103.947 13.517C104.448 13.325 104.992 13.229 105.579 13.229C106.294 13.229 106.923 13.3623 107.467 13.629C108.011 13.885 108.432 14.2477 108.731 14.717C109.04 15.1757 109.195 15.7143 109.195 16.333V22.125H107.211V20.637L107.659 20.605C107.435 20.9783 107.168 21.293 106.859 21.549C106.55 21.7943 106.198 21.9863 105.803 22.125C105.408 22.253 104.971 22.317 104.491 22.317ZM111.132 22.125V10.013H113.228V22.125H111.132ZM118.183 22.125V10.205H126.103V12.125H120.359V15.181H125.783V17.101H120.359V20.205H126.103V22.125H118.183ZM127.699 22.125V10.205H132.131C132.942 10.205 133.656 10.3543 134.275 10.653C134.904 10.941 135.395 11.3677 135.747 11.933C136.099 12.4877 136.275 13.165 136.275 13.965C136.275 14.7863 136.078 15.485 135.683 16.061C135.299 16.637 134.776 17.0637 134.115 17.341L136.851 22.125H134.387L131.459 16.893L132.867 17.725H129.875V22.125H127.699ZM129.875 15.805H132.163C132.558 15.805 132.899 15.7303 133.187 15.581C133.475 15.421 133.699 15.2023 133.859 14.925C134.019 14.6477 134.099 14.3277 134.099 13.965C134.099 13.5917 134.019 13.2717 133.859 13.005C133.699 12.7277 133.475 12.5143 133.187 12.365C132.899 12.205 132.558 12.125 132.163 12.125H129.875V15.805ZM138.277 22.125V10.205H142.725C143.536 10.205 144.25 10.3543 144.869 10.653C145.498 10.941 145.989 11.3677 146.341 11.933C146.693 12.4877 146.869 13.165 146.869 13.965C146.869 14.7543 146.688 15.4317 146.325 15.997C145.973 16.5517 145.488 16.9783 144.869 17.277C144.25 17.5757 143.536 17.725 142.725 17.725H140.453V22.125H138.277ZM140.453 15.805H142.757C143.152 15.805 143.493 15.7303 143.781 15.581C144.069 15.421 144.293 15.2023 144.453 14.925C144.613 14.6477 144.693 14.3277 144.693 13.965C144.693 13.5917 144.613 13.2717 144.453 13.005C144.293 12.7277 144.069 12.5143 143.781 12.365C143.493 12.205 143.152 12.125 142.757 12.125H140.453V15.805Z" fill="#172B4D"/>
</svg>
