<svg width="48" height="48" viewBox="0 0 48 48" fill="none" xmlns="http://www.w3.org/2000/svg">
<path d="M10 38H38V10H10V38ZM6 9.99C6 7.786 7.786 6 9.99 6H38.01C40.214 6 42 7.786 42 9.99V38.01C42 39.0682 41.5796 40.0831 40.8314 40.8314C40.0831 41.5796 39.0682 42 38.01 42H9.99C8.93179 42 7.91691 41.5796 7.16864 40.8314C6.42037 40.0831 6 39.0682 6 38.01V9.99Z" fill="#44546F"/>
<path fill-rule="evenodd" clip-rule="evenodd" d="M18.34 34H8V37C8 37.3948 8.07792 37.7857 8.22931 38.1504C8.3807 38.515 8.60258 38.8462 8.88221 39.1249C9.16185 39.4036 9.49375 39.6243 9.85888 39.7745C10.224 39.9247 10.6152 40.0013 11.01 40H36.99C38.666 40 40 38.656 40 37V34H29.66C29.2468 35.1711 28.4805 36.1851 27.4668 36.9024C26.4531 37.6197 25.2418 38.0049 24 38.0049C22.7582 38.0049 21.5469 37.6197 20.5332 36.9024C19.5195 36.1851 18.7532 35.1711 18.34 34ZM14 24H34V28H14V24ZM14 16H34V20H14V16Z" fill="#44546F"/>
</svg>
