<svg width="48" height="48" viewBox="0 0 48 48" fill="none" xmlns="http://www.w3.org/2000/svg">
<path d="M20.5619 21.438C20.4225 21.2985 20.2569 21.1879 20.0747 21.1124C19.8925 21.037 19.6972 20.9981 19.4999 20.9981C19.3027 20.9981 19.1074 21.037 18.9252 21.1124C18.743 21.1879 18.5774 21.2985 18.4379 21.438C18.2985 21.5775 18.1878 21.743 18.1124 21.9253C18.0369 22.1075 17.998 22.3028 17.998 22.5C17.998 22.6972 18.0369 22.8925 18.1124 23.0748C18.1878 23.257 18.2985 23.4225 18.4379 23.562L21.8789 27L18.4379 30.438C18.1563 30.7197 17.998 31.1017 17.998 31.5C17.998 31.8983 18.1563 32.2803 18.4379 32.562C18.7196 32.8437 19.1016 33.0019 19.4999 33.0019C19.8983 33.0019 20.2803 32.8437 20.5619 32.562L23.9999 29.121L27.4379 32.562C27.7196 32.8437 28.1016 33.0019 28.4999 33.0019C28.8983 33.0019 29.2803 32.8437 29.5619 32.562C29.8436 32.2803 30.0018 31.8983 30.0018 31.5C30.0018 31.1017 29.8436 30.7197 29.5619 30.438L26.1209 27L29.5619 23.562C29.8436 23.2803 30.0018 22.8983 30.0018 22.5C30.0018 22.1017 29.8436 21.7197 29.5619 21.438C29.2803 21.1563 28.8983 20.9981 28.4999 20.9981C28.1016 20.9981 27.7196 21.1563 27.4379 21.438L23.9999 24.879L20.5619 21.438Z" fill="#44546F"/>
<path d="M42 42V13.5L28.5 0H12C10.4087 0 8.88258 0.632141 7.75736 1.75736C6.63214 2.88258 6 4.4087 6 6V42C6 43.5913 6.63214 45.1174 7.75736 46.2426C8.88258 47.3679 10.4087 48 12 48H36C37.5913 48 39.1174 47.3679 40.2426 46.2426C41.3679 45.1174 42 43.5913 42 42ZM28.5 9C28.5 10.1935 28.9741 11.3381 29.818 12.182C30.6619 13.0259 31.8065 13.5 33 13.5H39V42C39 42.7957 38.6839 43.5587 38.1213 44.1213C37.5587 44.6839 36.7957 45 36 45H12C11.2044 45 10.4413 44.6839 9.87868 44.1213C9.31607 43.5587 9 42.7957 9 42V6C9 5.20435 9.31607 4.44129 9.87868 3.87868C10.4413 3.31607 11.2044 3 12 3H28.5V9Z" fill="#44546F"/>
</svg>
