<svg width="25" height="24" viewBox="0 0 25 24" fill="none" xmlns="http://www.w3.org/2000/svg">
<path fill-rule="evenodd" clip-rule="evenodd" d="M4.52026 19.23C4.48715 19.392 4.49472 19.5597 4.5423 19.718C4.58988 19.8764 4.67598 20.0205 4.79289 20.1374C4.90981 20.2543 5.05389 20.3404 5.21224 20.388C5.37059 20.4355 5.53826 20.4431 5.70026 20.41L9.51026 19.63L5.30026 15.42L4.52026 19.23ZM10.4413 16.61L8.32126 14.49L16.8063 6H16.8083L18.9293 8.121L10.4403 16.611L10.4413 16.61ZM20.3443 6.707L18.2243 4.585C18.0384 4.39908 17.8176 4.2517 17.5746 4.15131C17.3316 4.05092 17.0712 3.9995 16.8083 4C16.2963 4 15.7843 4.195 15.3933 4.585L5.63626 14.343L10.5863 19.293L20.3433 9.535C20.7182 9.15995 20.9288 8.65133 20.9288 8.121C20.9288 7.59068 20.7182 7.08206 20.3433 6.707H20.3443Z" fill="#44546F"/>
</svg>
