<svg width="24" height="25" viewBox="0 0 24 25" fill="none" xmlns="http://www.w3.org/2000/svg">
<path d="M19.005 19.5C19.002 19.5 19 19.502 19 19.502L19.005 19.5ZM5 19.506C5 19.502 4.998 19.5 4.995 19.5H5V19.506ZM19 19.5V13.5H21V19.502C21.0003 19.7642 20.9489 20.0239 20.8487 20.2662C20.7486 20.5085 20.6017 20.7288 20.4164 20.9143C20.2312 21.0999 20.0112 21.2471 19.769 21.3476C19.5268 21.4481 19.2672 21.4999 19.005 21.5H4.995C4.46615 21.4997 3.95902 21.2896 3.58497 20.9157C3.21092 20.5419 3.00053 20.0348 3 19.506V5.49399C3 4.39299 3.896 3.49999 4.997 3.49999H11V5.49999H5V19.5H19ZM5 19.506C5 19.502 4.998 19.5 4.995 19.5H5V19.506ZM11 5.49999H5V19.5H19V13.5H21V19.502C21.0003 19.7642 20.9489 20.0239 20.8487 20.2662C20.7486 20.5085 20.6017 20.7288 20.4164 20.9143C20.2312 21.0999 20.0112 21.2471 19.769 21.3476C19.5268 21.4481 19.2672 21.4999 19.005 21.5H4.995C4.46615 21.4997 3.95902 21.2896 3.58497 20.9157C3.21092 20.5419 3.00053 20.0348 3 19.506V5.49399C3 4.39299 3.896 3.49999 4.997 3.49999H11V5.49999ZM19 5.49999V8.49999C19 8.76521 19.1054 9.01956 19.2929 9.2071C19.4804 9.39463 19.7348 9.49999 20 9.49999C20.2652 9.49999 20.5196 9.39463 20.7071 9.2071C20.8946 9.01956 21 8.76521 21 8.49999V4.49999C21 4.23477 20.8946 3.98042 20.7071 3.79288C20.5196 3.60535 20.2652 3.49999 20 3.49999H16C15.7348 3.49999 15.4804 3.60535 15.2929 3.79288C15.1054 3.98042 15 4.23477 15 4.49999C15 4.76521 15.1054 5.01956 15.2929 5.2071C15.4804 5.39463 15.7348 5.49999 16 5.49999H19Z" fill="#626F86"/>
<path d="M12.707 13.207L20.707 5.20699C20.8025 5.11474 20.8787 5.0044 20.9311 4.88239C20.9835 4.76039 21.0111 4.62917 21.0123 4.49639C21.0134 4.36361 20.9881 4.23193 20.9378 4.10904C20.8875 3.98614 20.8133 3.87449 20.7194 3.78059C20.6255 3.6867 20.5138 3.61245 20.391 3.56217C20.2681 3.51189 20.1364 3.48659 20.0036 3.48774C19.8708 3.48889 19.7396 3.51648 19.6176 3.56889C19.4956 3.6213 19.3852 3.69748 19.293 3.79299L11.293 11.793C11.1108 11.9816 11.01 12.2342 11.0123 12.4964C11.0146 12.7586 11.1198 13.0094 11.3052 13.1948C11.4906 13.3802 11.7414 13.4854 12.0036 13.4877C12.2658 13.4899 12.5184 13.3891 12.707 13.207Z" fill="#626F86"/>
</svg>
