<svg width="24" height="25" viewBox="0 0 24 25" fill="none" xmlns="http://www.w3.org/2000/svg">
<path fill-rule="evenodd" clip-rule="evenodd" d="M12 4.5C7.588 4.5 4 8.088 4 12.5C4 16.912 7.588 20.5 12 20.5C16.412 20.5 20 16.912 20 12.5C20 8.088 16.412 4.5 12 4.5ZM12 18.722C10.3505 18.7199 8.76911 18.0637 7.60272 16.8973C6.43633 15.7309 5.78012 14.1495 5.778 12.5C5.78012 10.8505 6.43633 9.26911 7.60272 8.10272C8.76911 6.93633 10.3505 6.28012 12 6.278C13.6495 6.28012 15.2309 6.93633 16.3973 8.10272C17.5637 9.26911 18.2199 10.8505 18.222 12.5C18.2199 14.1495 17.5637 15.7309 16.3973 16.8973C15.2309 18.0637 13.6495 18.7199 12 18.722ZM12.889 12.132V8.948C12.889 8.459 12.489 8.059 12 8.059C11.511 8.059 11.111 8.459 11.111 8.949V12.504C11.111 12.752 11.214 12.975 11.379 13.137L13.574 15.331C13.741 15.4972 13.9669 15.5904 14.2025 15.5904C14.4381 15.5904 14.664 15.4972 14.831 15.331C14.9969 15.1641 15.0899 14.9383 15.0899 14.703C15.0899 14.4677 14.9969 14.2419 14.831 14.075L12.889 12.132Z" fill="#626F86"/>
</svg>
