<svg width="24" height="25" viewBox="0 0 24 25" fill="none" xmlns="http://www.w3.org/2000/svg">
<path fill-rule="evenodd" clip-rule="evenodd" d="M20.99 6.5C20.9909 6.62978 20.9661 6.75846 20.917 6.8786C20.8679 6.99874 20.7955 7.10798 20.704 7.2L19.371 8.469L20.655 9.769C20.7934 9.88673 20.8964 10.0406 20.9526 10.2133C21.0088 10.3861 21.0159 10.5711 20.9732 10.7477C20.9305 10.9243 20.8396 11.0856 20.7107 11.2137C20.5818 11.3417 20.4199 11.4315 20.243 11.473C20.0663 11.5152 19.8814 11.5079 19.7085 11.452C19.5357 11.3961 19.3815 11.2937 19.263 11.156L17.287 9.187C17.1034 9.00291 17.0003 8.75351 17.0003 8.4935C17.0003 8.23349 17.1034 7.98409 17.287 7.8L19.322 5.772C19.463 5.63804 19.6403 5.54858 19.8319 5.51479C20.0234 5.481 20.2207 5.50437 20.399 5.582C20.764 5.742 20.996 6.104 20.99 6.5ZM5 14.5C5 13.395 5.902 12.5 7.009 12.5H14.991C16.101 12.5 17 13.394 17 14.506V18.946C17 22.351 5 22.351 5 18.946V14.5Z" fill="#626F86"/>
<path d="M11 11.5C13.2091 11.5 15 9.70914 15 7.5C15 5.29086 13.2091 3.5 11 3.5C8.79086 3.5 7 5.29086 7 7.5C7 9.70914 8.79086 11.5 11 11.5Z" fill="#626F86"/>
</svg>
