<svg width="24" height="24" viewBox="0 0 24 24" fill="none" xmlns="http://www.w3.org/2000/svg">
<path fill-rule="evenodd" clip-rule="evenodd" d="M15.1849 7.4L12.0009 10.585L8.81489 7.399C8.71962 7.30584 8.59151 7.25393 8.45827 7.25449C8.32503 7.25505 8.19736 7.30804 8.10289 7.402L7.40289 8.103C7.35497 8.14897 7.31676 8.20409 7.29055 8.2651C7.26433 8.3261 7.25063 8.39175 7.25025 8.45815C7.24988 8.52455 7.26284 8.59035 7.28837 8.65165C7.31391 8.71295 7.35149 8.7685 7.39889 8.815L10.5839 11.999L7.39989 15.185C7.30686 15.2804 7.25512 15.4086 7.25587 15.5418C7.25662 15.6751 7.30979 15.8027 7.40389 15.897L8.10389 16.597C8.30989 16.804 8.61989 16.797 8.81589 16.601L12.0019 13.416L15.1859 16.601C15.2813 16.694 15.4095 16.7458 15.5427 16.745C15.676 16.7443 15.8035 16.6911 15.8979 16.597L16.5989 15.897C16.6467 15.851 16.6849 15.7958 16.711 15.7347C16.7371 15.6737 16.7507 15.608 16.751 15.5416C16.7513 15.4752 16.7382 15.4095 16.7126 15.3482C16.687 15.2869 16.6494 15.2314 16.6019 15.185L13.4159 11.999L16.6019 8.815C16.695 8.71974 16.747 8.59163 16.7464 8.45838C16.7458 8.32514 16.6928 8.19748 16.5989 8.103L15.8989 7.403C15.852 7.35497 15.796 7.31672 15.7342 7.29046C15.6724 7.2642 15.606 7.25045 15.5389 7.25C15.4731 7.25054 15.408 7.26407 15.3474 7.28981C15.2869 7.31555 15.232 7.35299 15.1859 7.4H15.1849Z" fill="#44546F"/>
</svg>
