<svg width="24" height="24" viewBox="0 0 24 24" fill="none" xmlns="http://www.w3.org/2000/svg">
<path fill-rule="evenodd" clip-rule="evenodd" d="M11.062 4.96699C11.578 3.99299 12.42 3.98899 12.938 4.96699L20.062 18.425C20.578 19.399 20.1069 20.196 19.0049 20.196H4.99495C3.89295 20.196 3.41995 19.403 3.93795 18.425L11.062 4.96699ZM11.2928 14.7071C11.4804 14.8946 11.7347 15 12 15C12.2652 15 12.5195 14.8946 12.7071 14.7071C12.8946 14.5196 13 14.2652 13 14V8.99998C13 8.73477 12.8946 8.48041 12.7071 8.29288C12.5195 8.10534 12.2652 7.99998 12 7.99998C11.7347 7.99998 11.4804 8.10534 11.2928 8.29288C11.1053 8.48041 11 8.73477 11 8.99998V14C11 14.2652 11.1053 14.5196 11.2928 14.7071ZM11.2928 17.7071C11.4804 17.8946 11.7347 18 12 18C12.2652 18 12.5195 17.8946 12.7071 17.7071C12.8946 17.5196 13 17.2652 13 17C13 16.7348 12.8946 16.4804 12.7071 16.2929C12.5195 16.1053 12.2652 16 12 16C11.7347 16 11.4804 16.1053 11.2928 16.2929C11.1053 16.4804 11 16.7348 11 17C11 17.2652 11.1053 17.5196 11.2928 17.7071Z" fill="#E56910"/>
</svg>
