<svg width="16" height="16" viewBox="0 0 16 16" fill="none" xmlns="http://www.w3.org/2000/svg">
<path d="M13.3333 4C13.3333 3.63181 13.0348 3.33333 12.6666 3.33333C12.2984 3.33333 11.9999 3.63181 11.9999 4V6.66667C11.9999 7.03486 12.2984 7.33333 12.6666 7.33333C13.0348 7.33333 13.3333 7.03486 13.3333 6.66667V4Z" fill="white"/>
<path d="M13.9999 4.66667H11.3333C10.9651 4.66667 10.6666 4.96514 10.6666 5.33333C10.6666 5.70152 10.9651 6 11.3333 6H13.9999C14.3681 6 14.6666 5.70152 14.6666 5.33333C14.6666 4.96514 14.3681 4.66667 13.9999 4.66667Z" fill="white"/>
<path fill-rule="evenodd" clip-rule="evenodd" d="M3.33325 9.33333C3.33325 8.59667 3.93459 8 4.67259 8H9.99392C10.7339 8 11.3333 8.596 11.3333 9.33733V12.2973C11.3333 14.5673 3.33325 14.5673 3.33325 12.2973V9.33333Z" fill="white"/>
<path d="M7.33325 7.33333C8.80601 7.33333 9.99992 6.13943 9.99992 4.66667C9.99992 3.19391 8.80601 2 7.33325 2C5.86049 2 4.66659 3.19391 4.66659 4.66667C4.66659 6.13943 5.86049 7.33333 7.33325 7.33333Z" fill="white"/>
</svg>
